# xmcd
#
# Track frame offsets:
#	150
#	10583
#	23505
#	37929
#	48871
#	58879
#	71999
#	81667
#	96966
#	106624
#	116857
#	127960
#	139841
#	150826
#	161680
#	184017
#
# Disc length: 2459 seconds
#
# Revision: 1
# Processed by: cddbd v1.5.1PL0 Copyright (c) Steve Scherf et al.
# Submitted via: audiograbber 1.83.01
#
DISCID=ca099910
DTITLE=Charley Pride - A Tribute To Jim Reeves
DYEAR=2000
DGENRE=Country
TTITLE0=Is It Really Over
TTITLE1=I Love You Because
TTITLE2=Guilty
TTITLE3=He'll Have To Go
TTITLE4=Blue Boy
TTITLE5=Four Walls
TTITLE6=There's A Heartache
TTITLE7=Blue Side Of Lonesome
TTITLE8=I'm Gonna Change Everything
TTITLE9=I Won't Come In
TTITLE10=I Guess I'm Crazy
TTITLE11=Missing You
TTITLE12=Welcome To My World
TTITLE13=Am I losing You
TTITLE14=Adios Amigo
TTITLE15=Data Track
EXTD=
EXTT0=
EXTT1=
EXTT2=
EXTT3=
EXTT4=
EXTT5=
EXTT6=
EXTT7=
EXTT8=
EXTT9=
EXTT10=
EXTT11=
EXTT12=
EXTT13=
EXTT14=
EXTT15=
PLAYORDER=
